HIERARCHY
ROOT hip
{
  OFFSET 0 0 0
  CHANNELS 6 Xposition Yposition Zposition Zrotation Yrotation Xrotation
  JOINT abdomen
  {
    OFFSET 0 20.6881 -0.73152
    CHANNELS 3 Zrotation Xrotation Yrotation
    JOINT chest
    {
      OFFSET 0 11.7043 -0.48768
      CHANNELS 3 Zrotation Xrotation Yrotation
      JOINT neck
      {
        OFFSET 0 22.1894 -2.19456
        CHANNELS 3 Zrotation Xrotation Yrotation
        JOINT head
        {
          OFFSET -0.24384 7.07133 1.2192
          CHANNELS 3 Zrotation Xrotation Yrotation
          JOINT leftEye
          {
            OFFSET 4.14528 8.04674 8.04672
            CHANNELS 3 Zrotation Xrotation Yrotation
            End Site
            {
              OFFSET 1 0 0
            }
          }
          JOINT rightEye
          {
            OFFSET -3.6576 8.04674 8.04672
            CHANNELS 3 Zrotation Xrotation Yrotation
            End Site
            {
              OFFSET 1 0 0
            }
          }
        }
      }
      JOINT rCollar
      {
        OFFSET -2.68224 19.2634 -4.8768
        CHANNELS 3 Zrotation Xrotation Yrotation
        JOINT rShldr
        {
          OFFSET -8.77824 -1.95073 1.46304
          CHANNELS 3 Zrotation Xrotation Yrotation
          JOINT rForeArm
          {
            OFFSET -28.1742 -1.7115 0.48768
            CHANNELS 3 Zrotation Xrotation Yrotation
            JOINT rHand
            {
              OFFSET -22.5879 0.773209 7.07136
              CHANNELS 3 Zrotation Xrotation Yrotation
              JOINT rThumb1
              {
                OFFSET -1.2192 -0.487915 3.41376
                CHANNELS 3 Zrotation Xrotation Yrotation
                JOINT rThumb2
                {
                  OFFSET -3.37035 -0.52449 3.41376
                  CHANNELS 3 Zrotation Xrotation Yrotation
                  End Site
                  {
                    OFFSET -1.78271 -1.18214 1.43049
                  }
                }
              }
              JOINT rIndex1
              {
                OFFSET -7.75947 0.938293 5.60832
                CHANNELS 3 Zrotation Xrotation Yrotation
                JOINT rIndex2
                {
                  OFFSET -2.54057 -0.884171 1.56538
                  CHANNELS 3 Zrotation Xrotation Yrotation
                  End Site
                  {
                    OFFSET -1.62519 -0.234802 1.16502
                  }
                }
              }
              JOINT rMid1
              {
                OFFSET -8.24714 1.18213 3.41376
                CHANNELS 3 Zrotation Xrotation Yrotation
                JOINT rMid2
                {
                  OFFSET -3.10165 -0.590103 1.0647
                  CHANNELS 3 Zrotation Xrotation Yrotation
                  End Site
                  {
                    OFFSET -2.48547 -0.328903 0.83742
                  }
                }
              }
              JOINT rRing1
              {
                OFFSET -8.82822 0.546677 1.51678
                CHANNELS 3 Zrotation Xrotation Yrotation
                JOINT rRing2
                {
                  OFFSET -2.60934 -0.819778 -0.0198488
                  CHANNELS 3 Zrotation Xrotation Yrotation
                  End Site
                  {
                    OFFSET -2.33842 -0.294052 0.168128
                  }
                }
              }
              JOINT rPinky1
              {
                OFFSET -8.27202 -0.0477905 -0.4584
                CHANNELS 3 Zrotation Xrotation Yrotation
                JOINT rPinky2
                {
                  OFFSET -1.82734 -0.647385 -0.700984
                  CHANNELS 3 Zrotation Xrotation Yrotation
                  End Site
                  {
                    OFFSET -1.69225 -0.51767 -0.607171
                  }
                }
              }
            }
          }
        }
      }
      JOINT lCollar
      {
        OFFSET 2.68224 19.2634 -4.8768
        CHANNELS 3 Zrotation Xrotation Yrotation
        JOINT lShldr
        {
          OFFSET 8.77824 -1.95073 1.46304
          CHANNELS 3 Zrotation Xrotation Yrotation
          JOINT lForeArm
          {
            OFFSET 28.1742 -1.7115 0.48768
            CHANNELS 3 Zrotation Xrotation Yrotation
            JOINT lHand
            {
              OFFSET 22.5879 0.773209 7.07136
              CHANNELS 3 Zrotation Xrotation Yrotation
              JOINT lThumb1
              {
                OFFSET 1.2192 -0.487915 3.41376
                CHANNELS 3 Zrotation Xrotation Yrotation
                JOINT lThumb2
                {
                  OFFSET 3.37035 -0.52449 3.41376
                  CHANNELS 3 Zrotation Xrotation Yrotation
                  End Site
                  {
                    OFFSET 1.78271 -1.18214 1.43049
                  }
                }
              }
              JOINT lIndex1
              {
                OFFSET 7.75947 0.938293 5.60832
                CHANNELS 3 Zrotation Xrotation Yrotation
                JOINT lIndex2
                {
                  OFFSET 2.54057 -0.884171 1.56538
                  CHANNELS 3 Zrotation Xrotation Yrotation
                  End Site
                  {
                    OFFSET 1.62519 -0.234802 1.16502
                  }
                }
              }
              JOINT lMid1
              {
                OFFSET 8.24714 1.18213 3.41376
                CHANNELS 3 Zrotation Xrotation Yrotation
                JOINT lMid2
                {
                  OFFSET 3.10165 -0.590103 1.0647
                  CHANNELS 3 Zrotation Xrotation Yrotation
                  End Site
                  {
                    OFFSET 2.48547 -0.328903 0.83742
                  }
                }
              }
              JOINT lRing1
              {
                OFFSET 8.82822 0.546677 1.51678
                CHANNELS 3 Zrotation Xrotation Yrotation
                JOINT lRing2
                {
                  OFFSET 2.60934 -0.819778 -0.0198488
                  CHANNELS 3 Zrotation Xrotation Yrotation
                  End Site
                  {
                    OFFSET 2.33842 -0.294052 0.168128
                  }
                }
              }
              JOINT lPinky1
              {
                OFFSET 8.27202 -0.0477905 -0.4584
                CHANNELS 3 Zrotation Xrotation Yrotation
                JOINT lPinky2
                {
                  OFFSET 1.82734 -0.647385 -0.700984
                  CHANNELS 3 Zrotation Xrotation Yrotation
                  End Site
                  {
                    OFFSET 1.69225 -0.51767 -0.607171
                  }
                }
              }
            }
          }
        }
      }
    }
  }
  JOINT rButtock
  {
    OFFSET -8.77824 4.35084 1.2192
    CHANNELS 3 Zrotation Xrotation Yrotation
    JOINT rThigh
    {
      OFFSET 0 -1.70687 -2.19456
      CHANNELS 3 Zrotation Xrotation Yrotation
      JOINT rShin
      {
        OFFSET 0 -36.8199 0.73152
        CHANNELS 3 Zrotation Xrotation Yrotation
        JOINT rFoot
        {
          OFFSET 0.73152 -45.1104 -5.12064
          CHANNELS 3 Zrotation Xrotation Yrotation
          End Site
          {
            OFFSET -1.1221 -3.69964 12.103
          }
        }
      }
    }
  }
  JOINT lButtock
  {
    OFFSET 8.77824 4.35084 1.2192
    CHANNELS 3 Zrotation Xrotation Yrotation
    JOINT lThigh
    {
      OFFSET 0 -1.70687 -2.19456
      CHANNELS 3 Zrotation Xrotation Yrotation
      JOINT lShin
      {
        OFFSET 0 -36.8199 0.73152
        CHANNELS 3 Zrotation Xrotation Yrotation
        JOINT lFoot
        {
          OFFSET -0.73152 -45.1104 -5.12064
          CHANNELS 3 Zrotation Xrotation Yrotation
          End Site
          {
            OFFSET 1.1221 -3.69964 12.103
          }
        }
      }
    }
  }
}
MOTION
Frames:	4
Frame Time:	0.00833333
-32.5702 84.2394 60.6268 167.893 -55.541 187.779 -5.0225 11.2629 -13.4816 7.6828 -4.30642 -3.77721 -9.47644 20.797 -16.9162 30.7689 9.11345 -47.9963 -0.0 0.0 0.0 -0.0 0.0 0.0 -3.03024e-13 4.42614e-13 1.14771e-13 79.9648 7.43432 -2.98088 -15.1251 -7.89897 27.8464 -0.0212092 4.13986 0.582855 1.49416e-09 -3.58764e-09 2.59599e-09 2.58695e-09 -6.20624e-09 4.4882e-09 1.49417e-09 -3.58764e-09 2.59598e-09 7.73091 5.47488 0.417314 1.49416e-09 -3.58764e-09 2.59599e-09 2.90554 0.965183 0.102902 1.49417e-09 -3.58764e-09 2.59599e-09 10.2786 0.731801 0.0259123 1.49416e-09 -3.58764e-09 2.59599e-09 2.22167 -0.733487 -0.20892 -3.03102e-13 4.42598e-13 1.14564e-13 -71.9307 30.9653 -17.0897 16.0615 -8.74703 -29.7962 0.0158143 3.69949 -0.5206 1.37165e-09 -1.26482e-10 1.46729e-09 2.37389e-09 -2.17219e-10 2.53008e-09 1.37164e-09 -1.26482e-10 1.4673e-09 -7.73091 5.47488 -0.417314 1.37165e-09 -1.26483e-10 1.46729e-09 -2.90554 0.965183 -0.102902 1.37164e-09 -1.26482e-10 1.46729e-09 -10.2786 0.731801 -0.0259123 1.37165e-09 -1.26479e-10 1.46728e-09 -2.22167 -0.733487 0.20892 -2.03217e-16 0.0 -3.88251e-19 -8.53481 -32.8218 -1.97087 -0.376209 41.8407 0.796315 -0.249709 -2.61271 1.72633 2.03217e-16 0.0 3.88251e-19 -6.24362 5.01059 1.02524 -0.0238231 15.8718 -0.528413 -0.680453 -3.33548 -13.3533
-32.1079 84.2717 60.9687 167.697 -55.9926 187.97 -4.95395 11.2525 -13.5849 7.65165 -4.48038 -3.79608 -9.33171 21.0302 -16.8638 30.7663 9.11581 -47.9828 -0.0 0.0 0.0 -0.0 0.0 0.0 -3.08494e-13 4.21428e-13 9.22858e-14 79.9119 7.68956 -2.99695 -15.1869 -7.95305 27.974 -0.0217324 4.2047 0.592006 1.79374e-09 -3.9147e-09 2.74145e-09 3.10666e-09 -6.77113e-09 4.73702e-09 1.79374e-09 -3.91469e-09 2.74144e-09 7.73091 5.47488 0.417314 1.79374e-09 -3.91469e-09 2.74144e-09 2.90554 0.965183 0.102902 1.79375e-09 -3.91469e-09 2.74144e-09 10.2786 0.731801 0.0259123 1.79374e-09 -3.9147e-09 2.74145e-09 2.22167 -0.733487 -0.20892 -3.08554e-13 4.21419e-13 9.2087e-14 -72.4127 30.5293 -16.4593 15.7386 -8.44664 -29.1229 0.0218115 4.21233 -0.593083 1.31555e-09 -5.04395e-10 1.41914e-09 2.27588e-09 -8.71335e-10 2.44734e-09 1.31555e-09 -5.04395e-10 1.41915e-09 -7.73091 5.47488 -0.417314 1.31556e-09 -5.04395e-10 1.41914e-09 -2.90554 0.965183 -0.102902 1.31555e-09 -5.04395e-10 1.41915e-09 -10.2786 0.731801 -0.0259123 1.31556e-09 -5.04391e-10 1.41914e-09 -2.22167 -0.733487 0.20892 -2.03217e-16 0.0 -3.88251e-19 -8.56375 -32.9116 -1.60596 -0.409523 43.3221 0.835744 -0.269631 -2.6725 1.52408 2.03217e-16 0.0 3.88251e-19 -6.04226 4.0681 0.802833 -0.0247488 16.7303 -0.529956 -0.745728 -3.4264 -13.611
-31.677 84.3316 61.2969 167.141 -56.4535 188.389 -5.0376 11.2546 -13.6409 7.68064 -4.51719 -3.81571 -9.30548 21.126 -16.8511 30.9012 9.14662 -48.031 -0.0 0.0 0.0 -0.0 0.0 0.0 -2.05662e-13 2.79866e-13 2.15722e-13 79.8002 7.79762 -2.9046 -15.2293 -7.99011 28.0625 -0.0233818 4.3749 0.61605 8.18549e-10 -2.67618e-09 1.92512e-09 1.41932e-09 -4.63228e-09 3.32952e-09 8.1855e-10 -2.67617e-09 1.92511e-09 7.73091 5.47488 0.417314 8.18545e-10 -2.67617e-09 1.92512e-09 2.90554 0.965183 0.102902 8.18557e-10 -2.67617e-09 1.92512e-09 10.2786 0.731801 0.0259123 8.18547e-10 -2.67617e-09 1.92512e-09 2.22167 -0.733487 -0.20892 -2.05736e-13 2.79861e-13 2.15506e-13 -72.8254 30.2489 -15.9546 15.4494 -8.18455 -28.5215 0.0250937 4.46279 -0.628527 4.07418e-10 -6.98746e-10 1.15479e-09 7.07183e-10 -1.20794e-09 1.9952e-09 4.07413e-10 -6.98746e-10 1.1548e-09 -7.73091 5.47488 -0.417314 4.07419e-10 -6.98746e-10 1.15479e-09 -2.90554 0.965183 -0.102902 4.07412e-10 -6.98746e-10 1.15479e-09 -10.2786 0.731801 -0.0259123 4.07424e-10 -6.98743e-10 1.15479e-09 -2.22167 -0.733487 0.20892 -2.03217e-16 0.0 -3.88251e-19 -8.76815 -32.9436 -1.27883 -0.447508 44.889 0.880955 -0.2463 -2.73131 1.61238 2.03217e-16 0.0 3.88251e-19 -5.99928 3.31302 0.560793 -0.025632 17.3461 -0.529124 -0.778188 -3.41879 -13.8458
-31.2492 84.3641 61.6378 166.511 -56.887 188.92 -5.22454 11.251 -13.6829 7.74368 -4.476 -3.83974 -9.33903 21.1464 -16.852 31.1195 9.20625 -48.1114 -0.0 0.0 0.0 -0.0 0.0 0.0 -3.2746e-14 5.30767e-14 4.29928e-13 79.6625 7.82095 -2.75273 -15.2542 -8.01189 28.1143 -0.0262814 4.6427 0.653915 -9.35818e-10 -4.66012e-10 5.18363e-10 -1.61678e-09 -8.15414e-10 9.0497e-10 -9.35818e-10 -4.66007e-10 5.18359e-10 7.73091 5.47488 0.417314 -9.35822e-10 -4.66005e-10 5.18365e-10 2.90554 0.965183 0.102902 -9.35811e-10 -4.66006e-10 5.18365e-10 10.2786 0.731801 0.0259123 -9.35821e-10 -4.66006e-10 5.18372e-10 2.22167 -0.733487 -0.20892 -3.2852e-14 5.30737e-14 4.29682e-13 -73.2053 30.0446 -15.4972 15.1734 -7.94022 -27.9488 0.0261046 4.55144 -0.641068 -1.06009e-09 -8.32635e-10 7.43591e-10 -1.82725e-09 -1.44011e-09 1.2922e-09 -1.0601e-09 -8.32634e-10 7.43598e-10 -7.73091 5.47488 -0.417314 -1.06009e-09 -8.32633e-10 7.43593e-10 -2.90554 0.965183 -0.102902 -1.0601e-09 -8.32635e-10 7.43593e-10 -10.2786 0.731801 -0.0259123 -1.06009e-09 -8.32633e-10 7.43587e-10 -2.22167 -0.733487 0.20892 -2.03217e-16 0.0 -3.88251e-19 -9.07846 -32.9385 -0.973289 -0.491171 46.5395 0.932442 -0.200307 -2.76109 1.8531 2.03217e-16 0.0 3.88251e-19 -6.05361 2.66589 0.291539 -0.026763 17.8067 -0.526334 -0.784727 -3.32926 -14.0743
